<svg id="svg" version="1.1" xmlns="http://www.w3.org/2000/svg" xmlns:xlink="http://www.w3.org/1999/xlink" width="400" height="400" viewBox="0, 0, 400,400"><g id="svgg"><path id="path0" d="M234.800 28.753 C 234.800 28.948,234.403 29.211,233.917 29.337 C 233.432 29.464,233.155 29.688,233.301 29.834 C 233.447 29.980,234.159 29.720,234.883 29.257 C 235.779 28.683,235.976 28.411,235.500 28.407 C 235.115 28.403,234.800 28.559,234.800 28.753 M178.441 61.434 C 177.693 61.965,177.222 62.400,177.394 62.400 C 177.776 62.400,180.400 60.800,180.400 60.567 C 180.400 60.216,179.752 60.503,178.441 61.434 M172.013 65.891 C 171.489 66.482,171.503 66.523,172.146 66.276 C 172.542 66.124,172.941 66.000,173.033 66.000 C 173.125 66.000,173.200 65.820,173.200 65.600 C 173.200 65.012,172.681 65.139,172.013 65.891 M161.074 77.285 C 160.455 78.164,160.024 78.957,160.115 79.048 C 160.206 79.140,160.785 78.488,161.400 77.600 C 162.015 76.712,162.447 75.919,162.359 75.837 C 162.272 75.755,161.694 76.407,161.074 77.285 M144.368 105.501 C 144.056 106.105,143.621 106.732,143.401 106.894 C 143.150 107.077,143.184 107.190,143.490 107.194 C 143.979 107.200,145.403 104.870,145.097 104.563 C 145.008 104.474,144.680 104.896,144.368 105.501 M325.553 106.500 C 325.527 106.775,325.527 107.135,325.553 107.300 C 325.579 107.465,325.420 107.600,325.200 107.600 C 324.980 107.600,324.800 107.842,324.800 108.138 C 324.800 108.434,324.440 109.002,324.000 109.400 C 323.560 109.798,323.200 110.366,323.200 110.662 C 323.200 110.958,323.020 111.200,322.800 111.200 C 322.580 111.200,322.400 111.560,322.400 112.000 C 322.400 112.440,322.220 112.800,322.000 112.800 C 321.780 112.800,321.600 113.070,321.600 113.400 C 321.600 113.730,321.420 114.000,321.200 114.000 C 320.980 114.000,320.800 114.270,320.800 114.600 C 320.800 114.930,320.620 115.200,320.400 115.200 C 320.180 115.200,320.000 115.560,320.000 116.000 C 320.000 116.440,319.820 116.800,319.600 116.800 C 319.380 116.800,319.200 117.120,319.200 117.512 C 319.200 117.903,318.840 118.483,318.400 118.800 C 317.960 119.117,317.600 119.697,317.600 120.088 C 317.600 120.480,317.420 120.800,317.200 120.800 C 316.980 120.800,316.800 121.160,316.800 121.600 C 316.800 122.040,316.620 122.400,316.400 122.400 C 316.180 122.400,316.000 122.636,316.000 122.925 C 316.000 123.213,315.685 123.798,315.300 124.225 C 314.915 124.651,314.330 125.540,314.001 126.200 C 313.671 126.860,313.311 127.490,313.201 127.600 C 312.950 127.850,311.874 129.760,310.947 131.600 C 310.559 132.370,310.052 133.132,309.821 133.294 C 309.589 133.456,309.548 133.591,309.729 133.594 C 309.909 133.597,309.773 133.885,309.425 134.232 C 309.077 134.580,308.895 135.030,309.020 135.232 C 309.145 135.435,309.057 135.600,308.824 135.600 C 308.591 135.600,308.400 135.960,308.400 136.400 C 308.400 136.840,308.220 137.200,308.000 137.200 C 307.780 137.200,307.600 137.520,307.600 137.912 C 307.600 138.303,307.240 138.883,306.800 139.200 C 306.360 139.517,306.000 140.097,306.000 140.488 C 306.000 140.880,305.820 141.200,305.600 141.200 C 305.380 141.200,305.200 141.470,305.200 141.800 C 305.200 142.130,305.020 142.400,304.800 142.400 C 304.580 142.400,304.400 142.678,304.400 143.017 C 304.400 143.356,304.040 144.020,303.600 144.492 C 303.160 144.964,302.800 145.587,302.800 145.875 C 302.800 146.164,302.620 146.400,302.400 146.400 C 302.180 146.400,302.000 146.760,302.000 147.200 C 302.000 147.640,301.820 148.000,301.600 148.000 C 301.380 148.000,301.200 148.236,301.200 148.525 C 301.200 148.813,300.840 149.436,300.400 149.908 C 299.960 150.380,299.600 151.044,299.600 151.383 C 299.600 151.722,299.420 152.000,299.200 152.000 C 298.980 152.000,298.800 152.278,298.800 152.617 C 298.800 152.956,298.440 153.620,298.000 154.092 C 297.560 154.564,297.200 155.187,297.200 155.475 C 297.200 155.764,297.020 156.000,296.800 156.000 C 296.580 156.000,296.400 156.360,296.400 156.800 C 296.400 157.240,296.220 157.600,296.000 157.600 C 295.780 157.600,295.600 157.793,295.600 158.028 C 295.600 158.263,295.051 159.253,294.381 160.228 C 293.710 161.203,293.288 162.000,293.443 162.000 C 293.597 162.000,293.439 162.315,293.090 162.700 C 292.742 163.085,292.489 163.529,292.529 163.687 C 292.568 163.845,292.285 164.342,291.900 164.792 C 291.515 165.241,291.200 165.877,291.200 166.205 C 291.200 166.532,291.020 166.800,290.800 166.800 C 290.580 166.800,290.400 167.078,290.400 167.417 C 290.400 167.756,290.040 168.420,289.600 168.892 C 289.160 169.364,288.800 169.987,288.800 170.275 C 288.800 170.564,288.620 170.800,288.400 170.800 C 288.180 170.800,288.000 171.120,288.000 171.512 C 288.000 171.903,287.640 172.483,287.200 172.800 C 286.760 173.117,286.400 173.625,286.400 173.928 C 286.400 174.231,285.860 174.983,285.200 175.600 C 284.540 176.217,284.000 176.833,284.000 176.969 C 284.000 177.106,283.055 178.177,281.900 179.350 C 280.745 180.523,278.393 182.949,276.673 184.741 C 274.954 186.534,273.328 188.000,273.062 188.000 C 272.795 188.000,272.317 188.360,272.000 188.800 C 271.683 189.240,271.143 189.600,270.800 189.600 C 270.457 189.600,269.917 189.960,269.600 190.400 C 269.283 190.840,268.786 191.200,268.495 191.200 C 268.204 191.200,267.587 191.554,267.123 191.986 C 266.659 192.419,266.147 192.691,265.985 192.591 C 265.823 192.491,265.468 192.677,265.196 193.004 C 264.924 193.332,264.467 193.600,264.180 193.600 C 263.892 193.600,263.419 193.828,263.129 194.106 C 262.838 194.384,261.735 195.059,260.678 195.606 C 259.621 196.153,258.413 196.915,257.995 197.300 C 257.576 197.685,256.956 198.000,256.617 198.000 C 256.278 198.000,256.000 198.180,256.000 198.400 C 256.000 198.620,255.640 198.800,255.200 198.800 C 254.760 198.800,254.400 198.980,254.400 199.200 C 254.400 199.420,254.164 199.600,253.875 199.600 C 253.587 199.600,252.964 199.960,252.492 200.400 C 252.020 200.840,251.356 201.200,251.017 201.200 C 250.678 201.200,250.400 201.380,250.400 201.600 C 250.400 201.820,250.122 202.000,249.783 202.000 C 249.444 202.000,248.780 202.360,248.308 202.800 C 247.836 203.240,247.213 203.600,246.925 203.600 C 246.636 203.600,246.400 203.780,246.400 204.000 C 246.400 204.220,246.040 204.400,245.600 204.400 C 245.160 204.400,244.800 204.580,244.800 204.800 C 244.800 205.020,244.530 205.200,244.200 205.200 C 243.870 205.200,243.600 205.380,243.600 205.600 C 243.600 205.820,243.330 206.000,243.000 206.000 C 242.670 206.000,242.400 206.180,242.400 206.400 C 242.400 206.620,242.130 206.800,241.800 206.800 C 241.470 206.800,241.200 206.980,241.200 207.200 C 241.200 207.420,240.840 207.600,240.400 207.600 C 239.960 207.600,239.600 207.780,239.600 208.000 C 239.600 208.220,239.253 208.400,238.829 208.400 C 238.404 208.400,237.787 208.670,237.457 209.000 C 237.127 209.330,236.574 209.600,236.229 209.600 C 235.883 209.600,235.600 209.780,235.600 210.000 C 235.600 210.220,235.401 210.400,235.158 210.400 C 234.915 210.400,233.916 210.940,232.938 211.600 C 231.960 212.260,230.899 212.800,230.580 212.800 C 230.261 212.800,230.000 212.980,230.000 213.200 C 230.000 213.420,229.807 213.600,229.572 213.600 C 229.337 213.600,228.359 214.140,227.400 214.800 C 226.441 215.460,225.463 216.000,225.228 216.000 C 224.993 216.000,224.800 216.180,224.800 216.400 C 224.800 216.620,224.480 216.800,224.088 216.800 C 223.697 216.800,223.117 217.160,222.800 217.600 C 222.483 218.040,221.903 218.400,221.512 218.400 C 221.120 218.400,220.800 218.580,220.800 218.800 C 220.800 219.020,220.440 219.200,220.000 219.200 C 219.560 219.200,219.200 219.380,219.200 219.600 C 219.200 219.820,218.880 220.000,218.488 220.000 C 218.097 220.000,217.517 220.360,217.200 220.800 C 216.883 221.240,216.303 221.600,215.912 221.600 C 215.520 221.600,215.200 221.780,215.200 222.000 C 215.200 222.220,214.840 222.400,214.400 222.400 C 213.960 222.400,213.600 222.580,213.600 222.800 C 213.600 223.020,213.330 223.200,213.000 223.200 C 212.670 223.200,212.400 223.380,212.400 223.600 C 212.400 223.820,212.130 224.000,211.800 224.000 C 211.470 224.000,211.200 224.180,211.200 224.400 C 211.200 224.620,210.920 224.800,210.579 224.800 C 210.237 224.800,209.295 225.250,208.486 225.800 C 207.677 226.350,206.786 226.800,206.507 226.800 C 206.228 226.800,206.000 226.980,206.000 227.200 C 206.000 227.420,205.640 227.600,205.200 227.600 C 204.760 227.600,204.400 227.780,204.400 228.000 C 204.400 228.220,204.164 228.400,203.875 228.400 C 203.587 228.400,202.964 228.760,202.492 229.200 C 202.020 229.640,201.356 230.000,201.017 230.000 C 200.678 230.000,200.400 230.180,200.400 230.400 C 200.400 230.620,200.040 230.800,199.600 230.800 C 199.160 230.800,198.800 230.980,198.800 231.200 C 198.800 231.420,198.564 231.600,198.275 231.600 C 197.987 231.600,197.364 231.960,196.892 232.400 C 196.420 232.840,195.756 233.200,195.417 233.200 C 195.078 233.200,194.800 233.380,194.800 233.600 C 194.800 233.820,194.613 234.000,194.384 234.000 C 193.910 234.000,191.469 235.645,191.267 236.100 C 191.193 236.265,190.788 236.400,190.367 236.400 C 189.945 236.400,189.600 236.580,189.600 236.800 C 189.600 237.020,189.322 237.200,188.983 237.200 C 188.644 237.200,187.980 237.560,187.508 238.000 C 187.036 238.440,186.413 238.800,186.125 238.800 C 185.836 238.800,185.600 238.980,185.600 239.200 C 185.600 239.420,185.240 239.600,184.800 239.600 C 184.360 239.600,184.000 239.780,184.000 240.000 C 184.000 240.220,183.640 240.400,183.200 240.400 C 182.760 240.400,182.400 240.557,182.400 240.749 C 182.400 240.942,181.275 241.654,179.900 242.332 C 177.026 243.749,175.259 244.783,174.480 245.504 C 174.180 245.781,173.770 245.905,173.568 245.780 C 173.365 245.655,173.200 245.722,173.200 245.928 C 173.200 246.134,172.660 246.527,172.000 246.800 C 171.340 247.073,170.800 247.455,170.800 247.649 C 170.800 247.842,170.440 248.000,170.000 248.000 C 169.560 248.000,169.200 248.180,169.200 248.400 C 169.200 248.620,168.922 248.800,168.583 248.800 C 168.244 248.800,167.580 249.160,167.108 249.600 C 166.636 250.040,166.013 250.400,165.725 250.400 C 165.436 250.400,165.200 250.580,165.200 250.800 C 165.200 251.020,164.840 251.200,164.400 251.200 C 163.960 251.200,163.600 251.380,163.600 251.600 C 163.600 251.820,163.330 252.000,163.000 252.000 C 162.670 252.000,162.400 252.180,162.400 252.400 C 162.400 252.620,162.130 252.800,161.800 252.800 C 161.470 252.800,161.200 252.980,161.200 253.200 C 161.200 253.420,160.840 253.600,160.400 253.600 C 159.960 253.600,159.600 253.780,159.600 254.000 C 159.600 254.220,159.330 254.400,159.000 254.400 C 158.670 254.400,158.400 254.580,158.400 254.800 C 158.400 255.020,158.080 255.200,157.688 255.200 C 157.297 255.200,156.717 255.560,156.400 256.000 C 156.083 256.440,155.503 256.800,155.112 256.800 C 154.720 256.800,154.400 256.980,154.400 257.200 C 154.400 257.420,154.040 257.600,153.600 257.600 C 153.160 257.600,152.800 257.780,152.800 258.000 C 152.800 258.220,152.530 258.400,152.200 258.400 C 151.870 258.400,151.600 258.580,151.600 258.800 C 151.600 259.020,151.465 259.159,151.300 259.109 C 150.855 258.974,146.400 261.315,146.400 261.684 C 146.400 261.858,146.040 262.000,145.600 262.000 C 145.160 262.000,144.800 262.136,144.800 262.302 C 144.800 262.469,144.294 262.829,143.675 263.103 C 143.056 263.376,142.164 263.960,141.692 264.400 C 141.220 264.840,140.556 265.200,140.217 265.200 C 139.878 265.200,139.600 265.380,139.600 265.600 C 139.600 265.820,139.240 266.000,138.800 266.000 C 138.360 266.000,138.000 266.158,138.000 266.351 C 138.000 266.545,137.460 266.927,136.800 267.200 C 136.140 267.473,135.600 267.855,135.600 268.049 C 135.600 268.242,135.240 268.400,134.800 268.400 C 134.360 268.400,134.000 268.580,134.000 268.800 C 134.000 269.020,133.722 269.200,133.383 269.200 C 133.044 269.200,132.380 269.560,131.908 270.000 C 131.436 270.440,130.813 270.800,130.525 270.800 C 130.236 270.800,130.000 270.980,130.000 271.200 C 130.000 271.769,128.499 271.698,128.307 271.120 C 128.182 270.746,128.081 270.746,127.850 271.120 C 127.686 271.384,127.743 271.600,127.976 271.600 C 128.209 271.600,128.400 271.780,128.400 272.000 C 128.400 272.220,128.159 272.400,127.864 272.400 C 126.507 272.400,124.422 275.561,115.600 291.000 C 114.700 292.574,114.447 293.013,110.410 300.000 C 108.821 302.750,107.111 305.720,106.610 306.600 C 106.110 307.480,104.395 310.450,102.800 313.200 C 99.437 319.000,98.693 320.287,97.600 322.200 C 95.623 325.659,95.242 326.318,94.113 328.221 C 93.453 329.333,92.464 331.043,91.915 332.021 C 91.365 332.999,88.886 337.310,86.406 341.600 C 83.925 345.890,81.559 349.985,81.148 350.700 C 79.570 353.443,78.749 354.861,73.795 363.400 C 70.987 368.240,68.147 373.190,67.484 374.400 C 66.821 375.610,65.945 377.078,65.539 377.662 C 65.133 378.246,64.800 378.817,64.800 378.932 C 64.800 380.276,58.941 388.354,56.048 391.000 C 52.378 394.356,51.492 395.364,52.051 395.550 C 52.331 395.644,52.629 395.513,52.713 395.260 C 52.798 395.007,53.122 394.800,53.433 394.800 C 53.745 394.800,54.000 394.620,54.000 394.400 C 54.000 394.180,54.270 394.000,54.600 394.000 C 54.930 394.000,55.200 393.820,55.200 393.600 C 55.200 393.380,55.560 393.200,56.000 393.200 C 56.440 393.200,56.800 393.020,56.800 392.800 C 56.800 392.580,56.993 392.400,57.229 392.400 C 57.464 392.400,57.927 392.130,58.257 391.800 C 58.587 391.470,59.204 391.200,59.629 391.200 C 60.053 391.200,60.403 391.065,60.406 390.900 C 60.410 390.735,61.310 390.160,62.406 389.621 C 63.503 389.083,64.400 388.498,64.400 388.321 C 64.400 388.145,64.745 388.000,65.167 388.000 C 65.588 388.000,65.993 387.865,66.067 387.700 C 66.234 387.324,68.364 386.025,69.300 385.729 C 69.685 385.607,70.000 385.348,70.000 385.153 C 70.000 384.959,70.360 384.800,70.800 384.800 C 71.240 384.800,71.600 384.620,71.600 384.400 C 71.600 384.180,71.836 384.000,72.125 384.000 C 72.413 384.000,73.036 383.640,73.508 383.200 C 73.980 382.760,74.554 382.400,74.783 382.400 C 75.012 382.400,75.200 382.220,75.200 382.000 C 75.200 381.780,75.560 381.600,76.000 381.600 C 76.440 381.600,76.800 381.420,76.800 381.200 C 76.800 380.980,77.120 380.800,77.512 380.800 C 77.903 380.800,78.483 380.440,78.800 380.000 C 79.117 379.560,79.697 379.200,80.088 379.200 C 80.480 379.200,80.800 379.020,80.800 378.800 C 80.800 378.580,81.160 378.400,81.600 378.400 C 82.040 378.400,82.400 378.220,82.400 378.000 C 82.400 377.780,82.636 377.600,82.925 377.600 C 83.213 377.600,83.836 377.240,84.308 376.800 C 84.780 376.360,85.444 376.000,85.783 376.000 C 86.122 376.000,86.400 375.820,86.400 375.600 C 86.400 375.380,86.718 375.200,87.107 375.200 C 87.496 375.200,88.477 374.750,89.286 374.200 C 90.095 373.650,90.932 373.200,91.145 373.200 C 91.359 373.200,91.593 373.065,91.667 372.900 C 91.834 372.524,93.964 371.225,94.900 370.929 C 95.285 370.807,95.600 370.548,95.600 370.353 C 95.600 370.159,95.960 370.000,96.400 370.000 C 96.840 370.000,97.200 369.820,97.200 369.600 C 97.200 369.380,97.436 369.200,97.725 369.200 C 98.013 369.200,98.636 368.840,99.108 368.400 C 99.580 367.960,100.244 367.600,100.583 367.600 C 100.922 367.600,101.200 367.420,101.200 367.200 C 101.200 366.980,101.560 366.800,102.000 366.800 C 102.440 366.800,102.800 366.620,102.800 366.400 C 102.800 366.180,103.070 366.000,103.400 366.000 C 103.730 366.000,104.000 365.820,104.000 365.600 C 104.000 365.380,104.270 365.200,104.600 365.200 C 104.930 365.200,105.200 365.020,105.200 364.800 C 105.200 364.580,105.560 364.400,106.000 364.400 C 106.440 364.400,106.800 364.220,106.800 364.000 C 106.800 363.780,107.070 363.600,107.400 363.600 C 107.730 363.600,108.000 363.420,108.000 363.200 C 108.000 362.980,108.236 362.800,108.525 362.800 C 108.813 362.800,109.436 362.440,109.908 362.000 C 110.380 361.560,111.044 361.200,111.383 361.200 C 111.722 361.200,112.000 361.020,112.000 360.800 C 112.000 360.580,112.360 360.400,112.800 360.400 C 113.240 360.400,113.600 360.241,113.600 360.046 C 113.600 359.851,114.275 359.389,115.100 359.020 C 117.079 358.134,119.749 356.720,120.000 356.424 C 120.110 356.295,121.047 355.762,122.082 355.241 C 123.118 354.719,124.325 353.957,124.766 353.546 C 125.206 353.136,125.844 352.800,126.183 352.800 C 126.522 352.800,126.800 352.620,126.800 352.400 C 126.800 352.180,127.160 352.000,127.600 352.000 C 128.040 352.000,128.400 351.842,128.400 351.649 C 128.400 351.455,128.940 351.073,129.600 350.800 C 130.260 350.527,130.800 350.145,130.800 349.951 C 130.800 349.758,131.160 349.600,131.600 349.600 C 132.040 349.600,132.400 349.420,132.400 349.200 C 132.400 348.980,132.720 348.800,133.112 348.800 C 133.503 348.800,134.083 348.440,134.400 348.000 C 134.717 347.560,135.297 347.200,135.688 347.200 C 136.080 347.200,136.400 347.020,136.400 346.800 C 136.400 346.580,136.760 346.400,137.200 346.400 C 137.640 346.400,138.000 346.220,138.000 346.000 C 138.000 345.780,138.270 345.600,138.600 345.600 C 138.930 345.600,139.200 345.420,139.200 345.200 C 139.200 344.980,139.470 344.800,139.800 344.800 C 140.130 344.800,140.400 344.620,140.400 344.400 C 140.400 344.180,140.670 344.000,141.000 344.000 C 141.330 344.000,141.600 343.820,141.600 343.600 C 141.600 343.380,141.960 343.200,142.400 343.200 C 142.840 343.200,143.200 343.020,143.200 342.800 C 143.200 342.580,143.560 342.400,144.000 342.400 C 144.440 342.400,144.800 342.265,144.801 342.100 C 144.801 341.935,145.881 341.274,147.201 340.630 C 148.520 339.987,149.600 339.312,149.600 339.130 C 149.600 338.949,149.945 338.800,150.367 338.800 C 150.788 338.800,151.193 338.665,151.267 338.500 C 151.340 338.335,152.255 337.767,153.300 337.237 C 154.345 336.708,155.200 336.156,155.200 336.012 C 155.200 335.867,155.830 335.502,156.600 335.200 C 157.370 334.898,158.000 334.504,158.000 334.325 C 158.000 334.146,158.236 334.000,158.525 334.000 C 158.813 334.000,159.436 333.640,159.908 333.200 C 160.380 332.760,161.044 332.400,161.383 332.400 C 161.722 332.400,162.000 332.220,162.000 332.000 C 162.000 331.780,162.360 331.600,162.800 331.600 C 163.240 331.600,163.600 331.420,163.600 331.200 C 163.600 330.980,163.836 330.800,164.125 330.800 C 164.413 330.800,165.036 330.440,165.508 330.000 C 165.980 329.560,166.644 329.200,166.983 329.200 C 167.322 329.200,167.600 329.020,167.600 328.800 C 167.600 328.580,167.878 328.400,168.217 328.400 C 168.556 328.400,169.220 328.040,169.692 327.600 C 170.164 327.160,170.787 326.800,171.075 326.800 C 171.364 326.800,171.600 326.620,171.600 326.400 C 171.600 326.180,171.960 326.000,172.400 326.000 C 172.840 326.000,173.200 325.840,173.200 325.643 C 173.200 325.447,173.650 325.174,174.200 325.036 C 174.750 324.898,175.200 324.608,175.200 324.392 C 175.200 324.177,175.560 324.000,176.000 324.000 C 176.440 324.000,176.803 323.865,176.806 323.700 C 176.810 323.535,177.710 322.960,178.806 322.421 C 179.903 321.883,180.800 321.298,180.800 321.121 C 180.800 320.945,181.145 320.800,181.567 320.800 C 181.988 320.800,182.393 320.665,182.467 320.500 C 182.634 320.124,184.764 318.825,185.700 318.529 C 186.085 318.407,186.400 318.148,186.400 317.953 C 186.400 317.759,186.760 317.600,187.200 317.600 C 187.640 317.600,188.000 317.420,188.000 317.200 C 188.000 316.980,188.270 316.800,188.600 316.800 C 188.930 316.800,189.200 316.620,189.200 316.400 C 189.200 316.180,189.470 316.000,189.800 316.000 C 190.130 316.000,190.400 315.820,190.400 315.600 C 190.400 315.380,190.670 315.200,191.000 315.200 C 191.330 315.200,191.600 315.020,191.600 314.800 C 191.600 314.580,191.960 314.400,192.400 314.400 C 192.840 314.400,193.200 314.220,193.200 314.000 C 193.200 313.780,193.520 313.600,193.912 313.600 C 194.303 313.600,194.883 313.240,195.200 312.800 C 195.517 312.360,196.097 312.000,196.488 312.000 C 196.880 312.000,197.200 311.820,197.200 311.600 C 197.200 311.380,197.560 311.200,198.000 311.200 C 198.440 311.200,198.800 311.020,198.800 310.800 C 198.800 310.580,199.036 310.400,199.325 310.400 C 199.613 310.400,200.236 310.040,200.708 309.600 C 201.180 309.160,201.819 308.800,202.127 308.800 C 202.436 308.800,203.303 308.383,204.053 307.874 C 204.804 307.364,205.999 306.690,206.709 306.376 C 207.419 306.062,208.000 305.669,208.000 305.502 C 208.000 305.336,208.236 305.200,208.525 305.200 C 208.813 305.200,209.436 304.840,209.908 304.400 C 210.380 303.960,211.044 303.600,211.383 303.600 C 211.722 303.600,212.000 303.420,212.000 303.200 C 212.000 302.980,212.360 302.800,212.800 302.800 C 213.240 302.800,213.600 302.620,213.600 302.400 C 213.600 302.180,213.836 302.000,214.125 302.000 C 214.413 302.000,215.036 301.640,215.508 301.200 C 215.980 300.760,216.644 300.400,216.983 300.400 C 217.322 300.400,217.600 300.220,217.600 300.000 C 217.600 299.780,217.960 299.600,218.400 299.600 C 218.840 299.600,219.200 299.420,219.200 299.200 C 219.200 298.980,219.470 298.800,219.800 298.800 C 220.130 298.800,220.400 298.620,220.400 298.400 C 220.400 298.180,220.670 298.000,221.000 298.000 C 221.330 298.000,221.600 297.820,221.600 297.600 C 221.600 297.380,221.960 297.200,222.400 297.200 C 222.840 297.200,223.200 297.020,223.200 296.800 C 223.200 296.580,223.388 296.400,223.617 296.400 C 223.846 296.400,224.420 296.040,224.892 295.600 C 225.364 295.160,225.987 294.800,226.275 294.800 C 226.564 294.800,226.800 294.620,226.800 294.400 C 226.800 294.180,227.160 294.000,227.600 294.000 C 228.040 294.000,228.400 293.820,228.400 293.600 C 228.400 293.380,228.720 293.200,229.112 293.200 C 229.503 293.200,230.083 292.840,230.400 292.400 C 230.717 291.960,231.228 291.600,231.534 291.600 C 232.047 291.600,235.939 289.678,236.400 289.198 C 236.510 289.083,237.447 288.562,238.482 288.041 C 239.518 287.519,240.725 286.757,241.166 286.346 C 241.606 285.936,242.244 285.600,242.583 285.600 C 242.922 285.600,243.200 285.420,243.200 285.200 C 243.200 284.980,243.478 284.800,243.817 284.800 C 244.156 284.800,244.820 284.440,245.292 284.000 C 245.764 283.560,246.387 283.200,246.675 283.200 C 246.964 283.200,247.200 283.020,247.200 282.800 C 247.200 282.580,247.560 282.400,248.000 282.400 C 248.440 282.400,248.800 282.220,248.800 282.000 C 248.800 281.780,249.120 281.600,249.512 281.600 C 249.903 281.600,250.483 281.240,250.800 280.800 C 251.117 280.360,251.697 280.000,252.088 280.000 C 252.480 280.000,252.800 279.820,252.800 279.600 C 252.800 279.380,253.160 279.200,253.600 279.200 C 254.040 279.200,254.400 279.020,254.400 278.800 C 254.400 278.580,254.670 278.400,255.000 278.400 C 255.330 278.400,255.600 278.220,255.600 278.000 C 255.600 277.780,255.870 277.600,256.200 277.600 C 256.530 277.600,256.800 277.420,256.800 277.200 C 256.800 276.980,257.160 276.800,257.600 276.800 C 258.040 276.800,258.400 276.620,258.400 276.400 C 258.400 276.180,258.670 276.000,259.000 276.000 C 259.330 276.000,259.600 275.834,259.600 275.632 C 259.600 275.429,260.140 275.145,260.800 275.000 C 261.460 274.855,262.003 274.616,262.006 274.468 C 262.010 274.321,262.910 273.760,264.006 273.221 C 265.103 272.683,266.000 272.098,266.000 271.921 C 266.000 271.745,266.360 271.600,266.800 271.600 C 267.240 271.600,267.600 271.420,267.600 271.200 C 267.600 270.980,267.960 270.800,268.400 270.800 C 268.840 270.800,269.200 270.620,269.200 270.400 C 269.200 270.180,269.436 270.000,269.725 270.000 C 270.013 270.000,270.598 269.675,271.025 269.278 C 271.451 268.880,272.385 268.297,273.100 267.980 C 273.815 267.664,274.400 267.269,274.400 267.102 C 274.400 266.936,274.636 266.800,274.925 266.800 C 275.213 266.800,275.836 266.440,276.308 266.000 C 276.780 265.560,277.444 265.200,277.783 265.200 C 278.122 265.200,278.400 265.020,278.400 264.800 C 278.400 264.580,278.678 264.400,279.017 264.400 C 279.356 264.400,280.020 264.040,280.492 263.600 C 280.964 263.160,281.587 262.800,281.875 262.800 C 282.164 262.800,282.400 262.620,282.400 262.400 C 282.400 262.180,282.760 262.000,283.200 262.000 C 283.640 262.000,284.000 261.820,284.000 261.600 C 284.000 261.380,284.320 261.200,284.712 261.200 C 285.103 261.200,285.683 260.840,286.000 260.400 C 286.317 259.960,286.897 259.600,287.288 259.600 C 287.680 259.600,288.000 259.420,288.000 259.200 C 288.000 258.980,288.255 258.800,288.568 258.800 C 289.281 258.800,291.594 257.502,291.597 257.100 C 291.599 256.935,291.960 256.800,292.400 256.800 C 292.840 256.800,293.203 256.665,293.206 256.500 C 293.210 256.335,294.110 255.760,295.206 255.221 C 296.303 254.683,297.200 254.098,297.200 253.921 C 297.200 253.745,297.560 253.600,298.000 253.600 C 298.440 253.600,298.800 253.420,298.800 253.200 C 298.800 252.980,299.036 252.800,299.325 252.800 C 299.613 252.800,300.236 252.440,300.708 252.000 C 301.180 251.560,301.844 251.200,302.183 251.200 C 302.522 251.200,302.800 251.020,302.800 250.800 C 302.800 250.580,303.160 250.400,303.600 250.400 C 304.040 250.400,304.400 250.220,304.400 250.000 C 304.400 249.780,304.670 249.600,305.000 249.600 C 305.330 249.600,305.600 249.420,305.600 249.200 C 305.600 248.980,305.870 248.800,306.200 248.800 C 306.530 248.800,306.800 248.620,306.800 248.400 C 306.800 248.180,307.160 248.000,307.600 248.000 C 308.040 248.000,308.400 247.820,308.400 247.600 C 308.400 247.380,308.670 247.200,309.000 247.200 C 309.330 247.200,309.600 247.020,309.600 246.800 C 309.600 246.580,309.920 246.400,310.312 246.400 C 310.703 246.400,311.283 246.040,311.600 245.600 C 311.917 245.160,312.497 244.800,312.888 244.800 C 313.280 244.800,313.600 244.620,313.600 244.400 C 313.600 244.180,313.960 244.000,314.400 244.000 C 314.840 244.000,315.200 243.820,315.200 243.600 C 315.200 243.380,315.470 243.200,315.800 243.200 C 316.130 243.200,316.400 243.020,316.400 242.800 C 316.400 242.580,316.670 242.400,317.000 242.400 C 317.330 242.400,317.600 242.220,317.600 242.000 C 317.600 241.780,317.871 241.600,318.202 241.600 C 319.950 241.600,334.800 228.325,334.800 226.762 C 334.800 226.505,335.128 226.003,335.528 225.647 C 336.293 224.968,339.600 220.219,339.600 219.801 C 339.600 219.667,340.050 218.895,340.600 218.086 C 341.150 217.277,341.600 216.296,341.600 215.907 C 341.600 215.518,341.780 215.200,342.000 215.200 C 342.220 215.200,342.400 214.880,342.400 214.488 C 342.400 214.097,342.760 213.517,343.200 213.200 C 343.640 212.883,344.000 212.303,344.000 211.912 C 344.000 211.520,344.180 211.200,344.400 211.200 C 344.620 211.200,344.800 210.840,344.800 210.400 C 344.800 209.960,344.980 209.600,345.200 209.600 C 345.420 209.600,345.600 209.330,345.600 209.000 C 345.600 208.670,345.780 208.400,346.000 208.400 C 346.220 208.400,346.400 208.130,346.400 207.800 C 346.400 207.470,346.580 207.200,346.800 207.200 C 347.020 207.200,347.200 206.930,347.200 206.600 C 347.200 206.270,347.380 206.000,347.600 206.000 C 347.820 206.000,348.000 205.640,348.000 205.200 C 348.000 204.760,348.180 204.400,348.400 204.400 C 348.620 204.400,348.800 204.164,348.800 203.875 C 348.800 203.587,349.160 202.964,349.600 202.492 C 350.040 202.020,350.400 201.356,350.400 201.017 C 350.400 200.678,350.580 200.400,350.800 200.400 C 351.020 200.400,351.200 200.040,351.200 199.600 C 351.200 199.160,351.380 198.800,351.600 198.800 C 351.820 198.800,352.000 198.564,352.000 198.275 C 352.000 197.987,352.360 197.364,352.800 196.892 C 353.240 196.420,353.600 195.756,353.600 195.417 C 353.600 195.078,353.780 194.800,354.000 194.800 C 354.220 194.800,354.400 194.440,354.400 194.000 C 354.400 193.560,354.568 193.200,354.773 193.200 C 354.978 193.200,355.260 192.841,355.399 192.402 C 355.538 191.964,355.866 191.379,356.126 191.102 C 356.387 190.826,357.140 189.520,357.800 188.200 C 358.460 186.880,359.135 185.740,359.300 185.667 C 359.465 185.593,359.600 185.188,359.600 184.767 C 359.600 184.345,359.780 184.000,360.000 184.000 C 360.220 184.000,360.400 183.764,360.400 183.475 C 360.400 183.187,360.760 182.564,361.200 182.092 C 361.640 181.620,362.000 180.956,362.000 180.617 C 362.000 180.278,362.180 180.000,362.400 180.000 C 362.620 180.000,362.800 179.722,362.800 179.383 C 362.800 179.044,363.160 178.380,363.600 177.908 C 364.040 177.436,364.400 176.813,364.400 176.525 C 364.400 176.236,364.546 176.000,364.725 176.000 C 364.904 176.000,365.298 175.370,365.600 174.600 C 365.902 173.830,366.296 173.200,366.475 173.200 C 366.654 173.200,366.800 172.930,366.800 172.600 C 366.800 172.270,366.980 172.000,367.200 172.000 C 367.420 172.000,367.600 171.730,367.600 171.400 C 367.600 171.070,367.780 170.800,368.000 170.800 C 368.220 170.800,368.400 170.440,368.400 170.000 C 368.400 169.560,368.580 169.200,368.800 169.200 C 369.020 169.200,369.200 168.922,369.200 168.583 C 369.200 168.244,369.560 167.580,370.000 167.108 C 370.440 166.636,370.800 166.013,370.800 165.725 C 370.800 165.436,370.980 165.200,371.200 165.200 C 371.420 165.200,371.600 164.840,371.600 164.400 C 371.600 163.960,371.735 163.597,371.900 163.594 C 372.065 163.590,372.640 162.690,373.179 161.594 C 373.717 160.497,374.288 159.600,374.447 159.600 C 374.606 159.600,374.855 159.060,375.000 158.400 C 375.145 157.740,375.429 157.200,375.632 157.200 C 375.834 157.200,376.000 156.840,376.000 156.400 C 376.000 155.960,375.857 155.600,375.683 155.600 C 375.252 155.600,326.400 106.774,326.400 106.343 C 326.400 105.798,325.605 105.946,325.553 106.500 M217.668 120.419 C 215.651 122.408,214.000 124.165,214.000 124.325 C 214.000 124.484,215.721 122.927,217.824 120.865 C 219.927 118.802,221.578 117.044,221.492 116.959 C 221.406 116.873,219.685 118.430,217.668 120.419 M206.497 134.975 C 206.009 135.979,205.680 136.800,205.766 136.800 C 206.079 136.800,207.629 133.887,207.508 133.525 C 207.440 133.319,206.985 133.972,206.497 134.975 M112.867 159.867 C 112.359 160.642,112.025 161.358,112.126 161.459 C 112.226 161.560,112.710 160.993,113.200 160.200 C 114.361 158.321,114.070 158.030,112.867 159.867 M111.317 162.700 C 111.175 163.085,110.955 163.490,110.829 163.600 C 110.703 163.710,110.367 164.250,110.082 164.800 C 109.623 165.685,109.677 165.666,110.554 164.628 C 111.098 163.984,111.630 163.129,111.735 162.728 C 111.978 161.798,111.657 161.776,111.317 162.700 M300.608 188.787 C 315.035 203.208,315.507 203.801,314.987 206.880 C 314.351 210.644,309.877 212.826,306.480 211.028 C 305.886 210.714,299.404 204.442,292.076 197.090 L 278.751 183.724 281.259 181.033 C 282.637 179.553,284.033 177.950,284.360 177.471 C 285.033 176.486,286.397 175.200,286.770 175.200 C 286.905 175.200,293.133 181.314,300.608 188.787 M95.257 190.457 C 94.975 190.909,94.832 191.366,94.940 191.473 C 95.047 191.581,95.344 191.278,95.600 190.800 C 96.205 189.670,95.924 189.390,95.257 190.457 M173.768 191.818 C 173.182 192.818,172.770 193.704,172.853 193.786 C 172.935 193.868,173.497 193.050,174.101 191.968 C 175.483 189.493,175.205 189.367,173.768 191.818 M113.400 218.693 C 111.376 219.200,109.377 221.999,103.758 232.198 C 103.515 232.639,102.367 234.620,101.207 236.600 C 99.096 240.203,98.298 241.579,96.800 244.200 C 96.360 244.970,95.660 246.185,95.245 246.900 C 94.829 247.615,93.096 250.630,91.393 253.600 C 87.267 260.794,87.108 261.070,85.656 263.518 C 84.965 264.682,84.400 265.704,84.400 265.788 C 84.400 265.872,83.500 267.408,82.400 269.200 C 81.300 270.992,80.400 272.539,80.400 272.637 C 80.400 272.734,79.680 274.000,78.800 275.448 C 77.920 276.897,77.200 278.130,77.200 278.190 C 77.200 278.249,76.210 279.948,75.000 281.964 C 73.790 283.981,72.800 285.696,72.800 285.775 C 72.800 285.854,72.080 287.103,71.200 288.552 C 70.320 290.000,69.600 291.296,69.600 291.431 C 69.600 291.566,69.267 292.154,68.861 292.738 C 68.455 293.322,67.581 294.790,66.920 296.000 C 66.258 297.210,65.126 299.190,64.403 300.400 C 62.565 303.476,62.026 304.408,59.201 309.400 C 57.832 311.820,56.212 314.610,55.602 315.600 C 54.992 316.590,54.044 318.210,53.496 319.200 C 52.650 320.729,51.278 323.111,46.005 332.200 C 37.057 347.624,36.581 349.427,40.694 352.313 C 43.527 354.301,50.000 352.658,50.000 349.951 C 50.000 349.790,50.900 348.192,52.000 346.400 C 53.100 344.608,54.000 343.073,54.000 342.990 C 54.000 342.907,55.289 340.625,56.863 337.919 C 58.438 335.214,60.130 332.280,60.622 331.400 C 61.115 330.520,62.463 328.180,63.618 326.200 C 68.533 317.775,71.363 312.886,72.300 311.200 C 72.850 310.210,74.247 307.780,75.405 305.800 C 76.562 303.820,78.542 300.400,79.806 298.200 C 81.069 296.000,82.418 293.660,82.803 293.000 C 83.990 290.964,90.851 279.082,91.694 277.600 C 92.133 276.830,94.208 273.230,96.305 269.600 C 98.403 265.970,100.452 262.415,100.859 261.700 C 102.145 259.444,103.038 257.902,105.203 254.200 C 106.361 252.220,107.858 249.610,108.530 248.400 C 109.202 247.190,111.067 243.977,112.676 241.259 C 114.284 238.542,115.600 236.255,115.600 236.177 C 115.600 236.099,116.165 235.082,116.856 233.918 C 118.106 231.809,118.877 230.475,120.400 227.788 C 123.229 222.794,118.994 217.292,113.400 218.693 M140.653 248.700 C 140.521 249.085,140.233 249.814,140.012 250.320 C 139.752 250.916,139.750 251.154,140.005 250.997 C 140.222 250.863,140.400 250.493,140.400 250.176 C 140.400 249.859,140.559 249.600,140.753 249.600 C 140.948 249.600,141.201 249.240,141.316 248.800 C 141.573 247.817,140.986 247.728,140.653 248.700 M138.637 252.600 C 138.276 253.150,138.137 253.600,138.327 253.600 C 138.516 253.600,138.877 253.150,139.127 252.600 C 139.378 252.050,139.517 251.600,139.437 251.600 C 139.357 251.600,138.997 252.050,138.637 252.600 M45.545 276.488 C 45.235 276.989,44.715 277.940,44.391 278.600 C 44.067 279.260,43.621 279.932,43.401 280.094 C 43.154 280.275,43.197 280.390,43.513 280.394 C 43.794 280.397,44.141 280.085,44.283 279.700 C 44.425 279.315,44.973 278.308,45.500 277.462 C 46.027 276.616,46.379 275.846,46.283 275.750 C 46.187 275.654,45.855 275.986,45.545 276.488 M28.057 306.857 C 27.775 307.309,27.632 307.766,27.740 307.873 C 27.847 307.981,28.144 307.678,28.400 307.200 C 29.005 306.070,28.724 305.790,28.057 306.857 M25.269 311.639 C 24.528 312.824,24.857 312.913,25.719 311.761 C 26.114 311.232,26.292 310.800,26.115 310.800 C 25.938 310.800,25.557 311.178,25.269 311.639 M10.525 337.232 C 10.050 338.100,9.829 338.706,10.034 338.579 C 10.477 338.305,11.718 335.984,11.524 335.791 C 11.450 335.716,11.000 336.365,10.525 337.232 " stroke="none" fill="#fc5404" fill-rule="evenodd"></path><path id="path1" d="M243.600 24.400 C 243.600 24.620,243.378 24.800,243.106 24.800 C 242.502 24.800,238.294 26.863,237.960 27.322 C 237.828 27.504,237.198 27.938,236.560 28.288 C 235.922 28.637,234.860 29.217,234.200 29.576 C 232.076 30.733,229.006 32.555,228.800 32.781 C 228.690 32.901,227.745 33.430,226.700 33.956 C 225.655 34.481,224.800 35.066,224.800 35.256 C 224.800 35.445,224.440 35.600,224.000 35.600 C 223.560 35.600,223.200 35.736,223.200 35.902 C 223.200 36.069,222.615 36.458,221.900 36.768 C 221.185 37.077,219.880 37.812,219.000 38.400 C 218.120 38.988,216.815 39.723,216.100 40.032 C 215.385 40.342,214.800 40.731,214.800 40.898 C 214.800 41.064,214.545 41.200,214.233 41.200 C 213.922 41.200,213.607 41.343,213.533 41.519 C 213.460 41.694,212.590 42.239,211.600 42.730 C 210.610 43.220,208.932 44.159,207.871 44.816 C 206.810 45.473,205.747 45.891,205.509 45.744 C 205.251 45.585,205.192 45.663,205.362 45.938 C 205.531 46.212,205.393 46.400,205.024 46.400 C 204.681 46.400,204.400 46.538,204.400 46.706 C 204.400 46.874,203.725 47.318,202.900 47.694 C 201.391 48.380,199.172 49.628,198.800 50.000 C 198.314 50.486,196.756 51.200,196.182 51.200 C 195.836 51.200,195.664 51.380,195.800 51.600 C 195.936 51.820,195.801 52.000,195.499 52.000 C 195.198 52.000,194.564 52.360,194.092 52.800 C 193.620 53.240,192.971 53.600,192.650 53.600 C 192.329 53.600,192.007 53.735,191.933 53.900 C 191.766 54.276,189.636 55.575,188.700 55.871 C 188.315 55.993,188.000 56.252,188.000 56.447 C 188.000 56.641,187.640 56.800,187.200 56.800 C 186.760 56.800,186.400 56.980,186.400 57.200 C 186.400 57.420,186.164 57.600,185.875 57.600 C 185.587 57.600,184.972 57.953,184.510 58.384 C 184.047 58.815,183.164 59.294,182.547 59.449 C 181.931 59.604,181.071 60.062,180.636 60.467 C 180.201 60.872,179.070 61.579,178.123 62.037 C 177.175 62.496,176.400 63.023,176.400 63.209 C 176.400 63.394,176.049 63.657,175.620 63.794 C 175.192 63.930,174.273 64.572,173.578 65.220 C 172.884 65.869,172.157 66.400,171.963 66.400 C 171.589 66.400,164.832 73.151,163.288 75.068 C 160.890 78.043,157.600 82.983,157.600 83.608 C 157.600 83.823,157.420 84.000,157.200 84.000 C 156.980 84.000,156.800 84.360,156.800 84.800 C 156.800 85.240,156.642 85.600,156.449 85.600 C 156.255 85.600,155.873 86.140,155.600 86.800 C 155.327 87.460,154.945 88.000,154.751 88.000 C 154.558 88.000,154.400 88.360,154.400 88.800 C 154.400 89.240,154.220 89.600,154.000 89.600 C 153.780 89.600,153.600 89.793,153.600 90.028 C 153.600 90.263,153.099 91.208,152.488 92.128 C 151.876 93.048,151.126 94.295,150.820 94.900 C 150.515 95.505,150.115 96.000,149.932 96.000 C 149.750 96.000,149.596 96.315,149.591 96.700 C 149.586 97.085,149.230 97.850,148.800 98.400 C 148.370 98.950,148.014 99.603,148.009 99.851 C 148.004 100.099,147.746 100.513,147.435 100.771 C 147.124 101.029,146.233 102.581,145.455 104.220 C 144.676 105.859,143.872 107.200,143.666 107.200 C 143.461 107.200,143.198 107.564,143.082 108.009 C 142.965 108.454,142.835 108.949,142.791 109.109 C 142.748 109.269,142.372 109.878,141.956 110.462 C 141.540 111.046,141.200 111.721,141.200 111.962 C 141.200 112.203,141.064 112.400,140.898 112.400 C 140.731 112.400,140.341 112.985,140.030 113.700 C 139.719 114.415,139.360 115.090,139.232 115.200 C 138.846 115.533,137.566 117.753,137.329 118.500 C 137.207 118.885,136.948 119.200,136.753 119.200 C 136.559 119.200,136.400 119.560,136.400 120.000 C 136.400 120.440,136.220 120.800,136.000 120.800 C 135.780 120.800,135.600 121.070,135.600 121.400 C 135.600 121.730,135.454 122.000,135.275 122.000 C 135.096 122.000,134.702 122.630,134.400 123.400 C 134.098 124.170,133.733 124.800,133.590 124.800 C 133.447 124.800,132.852 125.776,132.268 126.968 C 131.684 128.161,130.973 129.376,130.688 129.668 C 130.403 129.961,129.832 130.920,129.420 131.800 C 129.007 132.680,127.896 134.644,126.951 136.164 C 126.005 137.684,125.325 139.079,125.440 139.264 C 125.554 139.449,125.457 139.600,125.224 139.600 C 124.991 139.600,124.800 139.894,124.800 140.253 C 124.800 140.612,124.476 141.197,124.080 141.553 C 123.683 141.909,123.049 142.867,122.669 143.683 C 122.289 144.499,121.800 145.276,121.583 145.411 C 121.365 145.545,121.291 145.823,121.417 146.028 C 121.544 146.232,121.478 146.400,121.270 146.400 C 121.063 146.400,120.787 146.715,120.658 147.100 C 120.413 147.826,119.421 149.593,118.277 151.338 C 117.535 152.470,116.461 154.342,114.680 157.600 C 114.019 158.810,113.150 160.271,112.749 160.848 C 112.348 161.424,111.839 162.324,111.617 162.848 C 111.395 163.371,110.762 164.520,110.209 165.400 C 109.657 166.280,108.983 167.450,108.711 168.000 C 108.439 168.550,108.123 169.090,108.008 169.200 C 107.639 169.555,106.395 171.759,105.694 173.300 C 105.318 174.125,104.874 174.800,104.706 174.800 C 104.538 174.800,104.400 175.120,104.400 175.512 C 104.400 175.903,104.040 176.483,103.600 176.800 C 103.160 177.117,102.800 177.697,102.800 178.088 C 102.800 178.480,102.620 178.800,102.400 178.800 C 102.180 178.800,102.000 179.160,102.000 179.600 C 102.000 180.040,101.853 180.400,101.674 180.400 C 101.495 180.400,100.986 181.075,100.544 181.900 C 99.333 184.159,98.623 185.378,98.390 185.600 C 98.275 185.710,97.574 186.970,96.831 188.400 C 96.089 189.830,94.968 191.774,94.341 192.720 C 93.713 193.666,93.200 194.611,93.200 194.820 C 93.200 195.029,93.040 195.200,92.843 195.200 C 92.647 195.200,92.365 195.684,92.217 196.276 C 92.068 196.867,91.599 197.840,91.173 198.437 C 90.748 199.035,90.400 199.721,90.400 199.962 C 90.400 200.203,90.220 200.400,90.000 200.400 C 89.780 200.400,89.600 200.745,89.600 201.167 C 89.600 201.588,89.465 201.993,89.300 202.067 C 88.901 202.244,86.400 206.350,86.400 206.827 C 86.400 207.032,86.241 207.200,86.047 207.200 C 85.852 207.200,85.590 207.515,85.464 207.900 C 85.338 208.285,84.752 209.410,84.161 210.400 C 83.170 212.061,82.563 213.114,81.138 215.645 C 80.842 216.170,80.401 216.870,80.158 217.200 C 79.915 217.530,79.197 218.790,78.561 220.000 C 77.926 221.210,77.291 222.290,77.149 222.400 C 77.008 222.510,76.456 223.500,75.922 224.600 C 74.812 226.887,73.904 228.509,73.571 228.800 C 73.445 228.910,73.224 229.270,73.080 229.600 C 72.936 229.930,72.266 231.100,71.591 232.200 C 70.917 233.300,70.262 234.515,70.136 234.900 C 70.010 235.285,69.748 235.600,69.553 235.600 C 69.359 235.600,69.200 235.971,69.200 236.424 C 69.200 236.877,69.060 237.161,68.890 237.055 C 68.719 236.950,68.134 237.839,67.590 239.030 C 67.045 240.222,66.496 241.198,66.368 241.199 C 66.241 241.199,65.715 242.100,65.200 243.200 C 64.685 244.300,64.148 245.200,64.006 245.200 C 63.865 245.200,63.505 245.822,63.207 246.582 C 62.902 247.360,62.476 247.856,62.232 247.718 C 61.995 247.582,61.935 247.620,62.099 247.802 C 62.356 248.085,60.716 251.419,60.035 252.000 C 59.610 252.362,58.400 254.714,58.400 255.178 C 58.400 255.429,58.040 256.020,57.600 256.492 C 57.160 256.964,56.800 257.587,56.800 257.875 C 56.800 258.164,56.620 258.400,56.400 258.400 C 56.180 258.400,56.000 258.760,56.000 259.200 C 56.000 259.640,55.841 260.000,55.647 260.000 C 55.452 260.000,55.179 260.315,55.040 260.700 C 54.901 261.085,54.245 262.300,53.583 263.400 C 52.920 264.500,52.272 265.715,52.142 266.100 C 52.013 266.485,51.769 266.800,51.600 266.800 C 51.431 266.800,51.187 267.115,51.058 267.500 C 50.830 268.175,50.367 269.005,48.548 272.000 C 47.584 273.588,45.328 277.652,44.496 279.300 C 44.191 279.905,43.755 280.400,43.528 280.400 C 43.300 280.400,43.212 280.655,43.332 280.967 C 43.452 281.279,43.279 281.637,42.949 281.764 C 42.619 281.891,42.461 282.176,42.598 282.397 C 42.735 282.619,42.690 282.800,42.498 282.800 C 42.306 282.800,41.902 283.430,41.600 284.200 C 41.298 284.970,40.904 285.600,40.725 285.600 C 40.546 285.600,40.400 285.870,40.400 286.200 C 40.400 286.530,40.220 286.800,40.000 286.800 C 39.780 286.800,39.600 287.160,39.600 287.600 C 39.600 288.040,39.454 288.400,39.275 288.400 C 39.096 288.400,38.702 289.030,38.400 289.800 C 38.098 290.570,37.704 291.200,37.525 291.200 C 37.346 291.200,37.200 291.436,37.200 291.725 C 37.200 292.013,36.840 292.636,36.400 293.108 C 35.960 293.580,35.600 294.244,35.600 294.583 C 35.600 294.922,35.441 295.200,35.247 295.200 C 35.052 295.200,34.790 295.515,34.664 295.900 C 34.538 296.285,33.977 297.365,33.418 298.300 C 31.095 302.181,30.334 303.512,29.205 305.671 C 28.552 306.920,27.823 308.062,27.584 308.210 C 27.182 308.459,26.535 309.791,26.466 310.514 C 26.449 310.687,26.068 311.296,25.618 311.868 C 25.168 312.440,24.800 313.154,24.800 313.454 C 24.800 313.754,24.654 314.000,24.475 314.000 C 24.296 314.000,23.902 314.630,23.600 315.400 C 23.298 316.170,22.904 316.800,22.725 316.800 C 22.546 316.800,22.400 317.070,22.400 317.400 C 22.400 317.730,22.254 318.000,22.075 318.000 C 21.896 318.000,21.502 318.630,21.200 319.400 C 20.898 320.170,20.504 320.800,20.325 320.800 C 20.146 320.800,20.000 321.160,20.000 321.600 C 20.000 322.040,19.841 322.400,19.647 322.400 C 19.452 322.400,19.193 322.715,19.071 323.100 C 18.854 323.785,17.596 326.004,17.200 326.400 C 17.013 326.587,16.478 327.498,15.438 329.400 C 15.197 329.840,14.906 330.290,14.792 330.400 C 14.677 330.510,14.353 331.050,14.071 331.600 C 13.789 332.150,12.770 333.950,11.807 335.600 C 9.052 340.318,7.964 342.400,8.254 342.400 C 8.402 342.400,8.135 342.736,7.661 343.147 C 7.188 343.558,6.800 344.100,6.800 344.352 C 6.800 344.928,6.015 346.315,5.100 347.355 C 4.715 347.793,4.400 348.372,4.400 348.642 C 4.400 348.912,4.265 349.193,4.100 349.267 C 3.594 349.492,2.000 352.827,2.000 353.661 C 2.000 354.094,1.820 354.336,1.600 354.200 C 1.363 354.053,1.200 354.518,1.200 355.343 C 1.200 356.108,0.975 356.808,0.700 356.900 C -0.021 357.140,-0.021 375.739,0.700 376.460 C 0.975 376.735,1.200 377.363,1.200 377.856 C 1.200 378.349,1.380 378.864,1.600 379.000 C 1.820 379.136,2.000 379.597,2.000 380.024 C 2.000 380.451,2.180 380.800,2.400 380.800 C 2.620 380.800,2.800 381.160,2.800 381.600 C 2.800 382.040,2.946 382.400,3.125 382.400 C 3.304 382.400,3.698 383.030,4.000 383.800 C 4.302 384.570,4.657 385.200,4.788 385.200 C 4.920 385.200,5.339 385.728,5.721 386.373 C 6.102 387.019,7.126 388.324,7.996 389.273 C 8.867 390.223,9.583 391.135,9.589 391.300 C 9.595 391.465,9.804 391.600,10.053 391.600 C 10.302 391.600,10.797 391.931,11.153 392.335 C 12.006 393.305,16.571 396.400,17.149 396.400 C 17.397 396.400,17.600 396.580,17.600 396.800 C 17.600 397.020,17.960 397.200,18.400 397.200 C 18.840 397.200,19.200 397.380,19.200 397.600 C 19.200 397.820,19.549 398.000,19.976 398.000 C 20.403 398.000,20.864 398.180,21.000 398.400 C 21.136 398.620,21.651 398.800,22.144 398.800 C 22.637 398.800,23.265 399.025,23.540 399.300 C 23.912 399.672,26.446 399.800,33.400 399.800 C 40.355 399.800,42.889 399.672,43.260 399.300 C 43.535 399.025,44.086 398.800,44.485 398.800 C 44.884 398.800,45.523 398.640,45.905 398.444 C 46.287 398.248,47.500 397.666,48.600 397.152 C 49.700 396.637,51.337 395.492,52.237 394.608 C 53.138 393.724,54.855 392.100,56.055 391.000 C 58.947 388.346,64.800 380.271,64.800 378.932 C 64.800 378.817,65.133 378.246,65.539 377.662 C 65.945 377.078,66.821 375.610,67.484 374.400 C 68.147 373.190,70.987 368.240,73.795 363.400 C 78.749 354.861,79.570 353.443,81.148 350.700 C 81.559 349.985,83.925 345.890,86.406 341.600 C 88.886 337.310,91.365 332.999,91.915 332.021 C 92.464 331.043,93.453 329.333,94.113 328.221 C 95.242 326.318,95.623 325.659,97.600 322.200 C 98.693 320.287,99.437 319.000,102.800 313.200 C 104.395 310.450,106.110 307.480,106.610 306.600 C 107.111 305.720,108.821 302.750,110.410 300.000 C 114.447 293.013,114.700 292.574,115.600 291.000 C 122.124 279.583,124.776 275.205,125.948 273.917 C 127.252 272.484,128.146 271.083,129.468 268.400 C 129.848 267.630,130.258 266.910,130.379 266.800 C 130.501 266.690,130.825 266.195,131.100 265.700 C 131.375 265.205,131.825 264.395,132.100 263.900 C 132.375 263.405,132.690 262.910,132.800 262.800 C 133.052 262.548,133.896 261.069,134.970 259.000 C 135.426 258.120,135.914 257.310,136.054 257.200 C 136.323 256.988,138.265 253.519,139.971 250.200 C 140.537 249.100,141.135 248.140,141.300 248.067 C 141.465 247.993,141.600 247.678,141.600 247.367 C 141.600 247.055,141.746 246.800,141.925 246.800 C 142.104 246.800,142.498 246.170,142.800 245.400 C 143.102 244.630,143.496 244.000,143.675 244.000 C 143.854 244.000,144.000 243.722,144.000 243.383 C 144.000 243.044,144.360 242.380,144.800 241.908 C 145.240 241.436,145.600 240.813,145.600 240.525 C 145.600 240.236,145.780 240.000,146.000 240.000 C 146.220 240.000,146.400 239.640,146.400 239.200 C 146.400 238.760,146.580 238.400,146.800 238.400 C 147.020 238.400,147.200 238.207,147.200 237.972 C 147.200 237.737,147.740 236.759,148.400 235.800 C 149.060 234.841,149.600 233.863,149.600 233.628 C 149.600 233.393,149.759 233.200,149.953 233.200 C 150.148 233.200,150.407 232.885,150.530 232.500 C 150.781 231.712,152.941 227.820,154.472 225.400 C 155.028 224.520,155.612 223.395,155.769 222.900 C 155.925 222.405,156.222 222.000,156.427 222.000 C 156.632 222.000,156.800 221.730,156.800 221.400 C 156.800 221.070,156.991 220.800,157.224 220.800 C 157.457 220.800,157.544 220.632,157.417 220.428 C 157.291 220.223,157.354 219.952,157.559 219.825 C 157.763 219.699,158.339 218.742,158.838 217.698 C 159.337 216.654,159.862 215.710,160.004 215.600 C 160.147 215.490,160.519 214.815,160.830 214.100 C 161.141 213.385,161.531 212.800,161.698 212.800 C 161.864 212.800,162.000 212.522,162.000 212.183 C 162.000 211.844,162.360 211.180,162.800 210.708 C 163.240 210.236,163.600 209.613,163.600 209.325 C 163.600 209.036,163.780 208.800,164.000 208.800 C 164.220 208.800,164.400 208.603,164.400 208.362 C 164.400 208.121,164.733 207.446,165.139 206.862 C 165.545 206.278,166.415 204.810,167.072 203.600 C 168.744 200.518,169.369 199.431,169.600 199.200 C 169.855 198.945,170.587 197.659,172.332 194.400 C 173.098 192.970,174.028 191.350,174.400 190.800 C 174.771 190.250,175.327 189.215,175.635 188.500 C 175.943 187.785,176.331 187.200,176.498 187.200 C 176.664 187.200,176.800 186.930,176.800 186.600 C 176.800 186.270,176.980 186.000,177.200 186.000 C 177.420 186.000,177.600 185.640,177.600 185.200 C 177.600 184.760,177.746 184.400,177.925 184.400 C 178.104 184.400,178.498 183.770,178.800 183.000 C 179.102 182.230,179.496 181.600,179.675 181.600 C 179.854 181.600,180.000 181.364,180.000 181.075 C 180.000 180.787,180.360 180.164,180.800 179.692 C 181.240 179.220,181.600 178.556,181.600 178.217 C 181.600 177.878,181.735 177.599,181.900 177.597 C 182.065 177.595,182.387 177.190,182.617 176.697 C 183.206 175.428,184.961 172.239,185.201 172.000 C 185.523 171.680,188.000 167.567,188.000 167.352 C 188.000 167.245,188.450 166.495,189.000 165.686 C 189.550 164.877,190.000 163.896,190.000 163.507 C 190.000 163.118,190.179 162.800,190.398 162.800 C 190.617 162.800,191.193 161.945,191.679 160.900 C 192.165 159.855,192.706 158.940,192.881 158.867 C 193.057 158.793,193.200 158.388,193.200 157.967 C 193.200 157.545,193.380 157.200,193.600 157.200 C 193.820 157.200,194.000 156.930,194.000 156.600 C 194.000 156.270,194.180 156.000,194.400 156.000 C 194.620 156.000,194.800 155.730,194.800 155.400 C 194.800 155.070,194.980 154.800,195.200 154.800 C 195.420 154.800,195.600 154.530,195.600 154.200 C 195.600 153.870,195.780 153.600,196.000 153.600 C 196.220 153.600,196.400 153.328,196.400 152.995 C 196.400 152.333,197.117 150.940,197.890 150.097 C 198.160 149.803,198.693 148.896,199.075 148.081 C 199.457 147.267,200.001 146.362,200.284 146.072 C 200.567 145.782,200.909 145.107,201.043 144.572 C 201.177 144.037,201.447 143.600,201.643 143.600 C 201.840 143.600,202.000 143.430,202.000 143.223 C 202.000 142.736,205.248 137.492,205.788 137.106 C 206.015 136.944,206.061 136.809,205.892 136.806 C 205.573 136.800,207.095 133.554,207.584 133.200 C 207.735 133.090,208.296 132.190,208.830 131.200 C 209.363 130.210,210.294 128.860,210.898 128.200 C 211.502 127.540,211.997 126.879,211.998 126.731 C 212.004 125.908,219.317 118.567,222.798 115.890 C 224.008 114.961,225.347 113.885,225.774 113.500 C 226.201 113.115,226.787 112.800,227.075 112.800 C 227.364 112.800,227.600 112.620,227.600 112.400 C 227.600 112.180,227.836 112.000,228.125 112.000 C 228.413 112.000,229.036 111.640,229.508 111.200 C 229.980 110.760,230.644 110.400,230.983 110.400 C 231.322 110.400,231.600 110.220,231.600 110.000 C 231.600 109.780,231.870 109.600,232.200 109.600 C 232.530 109.600,232.800 109.434,232.800 109.232 C 232.800 109.029,233.328 108.748,233.972 108.606 C 234.617 108.464,235.358 108.092,235.618 107.779 C 235.878 107.465,236.250 107.307,236.445 107.428 C 236.640 107.549,236.800 107.485,236.800 107.288 C 236.800 106.902,238.803 105.814,239.300 105.930 C 239.465 105.969,239.600 105.820,239.600 105.600 C 239.600 105.380,239.870 105.200,240.200 105.200 C 240.530 105.200,240.800 105.020,240.800 104.800 C 240.800 104.580,240.999 104.400,241.242 104.400 C 241.485 104.400,242.430 103.905,243.342 103.300 C 244.254 102.695,245.540 101.936,246.200 101.614 C 246.860 101.292,247.850 100.728,248.400 100.361 C 248.950 99.994,250.075 99.313,250.900 98.847 C 251.725 98.381,253.005 97.657,253.745 97.238 C 254.485 96.818,255.520 96.233,256.045 95.938 C 256.570 95.642,257.090 95.310,257.200 95.200 C 257.310 95.090,258.210 94.563,259.200 94.030 C 260.190 93.496,261.090 92.956,261.200 92.830 C 261.689 92.267,263.913 91.246,264.144 91.477 C 264.285 91.618,264.400 91.513,264.400 91.243 C 264.400 90.973,264.580 90.864,264.800 91.000 C 265.020 91.136,265.200 91.102,265.200 90.924 C 265.201 90.746,266.146 90.077,267.300 89.438 C 268.455 88.799,270.702 87.494,272.293 86.538 C 273.884 85.582,275.369 84.800,275.593 84.800 C 275.817 84.800,276.000 84.654,276.000 84.475 C 276.000 84.296,276.630 83.902,277.400 83.600 C 278.170 83.298,278.800 82.904,278.800 82.725 C 278.800 82.546,279.070 82.400,279.400 82.400 C 279.730 82.400,280.000 82.220,280.000 82.000 C 280.000 81.780,280.360 81.600,280.800 81.600 C 281.240 81.600,281.600 81.441,281.600 81.247 C 281.600 81.052,281.915 80.793,282.300 80.671 C 283.047 80.434,285.267 79.154,285.600 78.768 C 285.710 78.640,286.385 78.281,287.100 77.970 C 287.815 77.659,288.400 77.269,288.400 77.102 C 288.400 76.936,288.636 76.800,288.925 76.800 C 289.213 76.800,289.836 76.440,290.308 76.000 C 290.780 75.560,291.444 75.200,291.783 75.200 C 292.122 75.200,292.400 75.020,292.400 74.800 C 292.400 74.580,292.625 74.445,292.900 74.500 C 294.413 74.803,291.258 71.466,268.608 48.804 C 242.706 22.890,243.600 23.763,243.600 24.400 M350.940 131.200 C 364.375 144.620,375.463 155.600,375.582 155.600 C 375.700 155.600,364.819 144.620,351.400 131.200 C 337.981 117.780,326.893 106.800,326.759 106.800 C 326.625 106.800,337.506 117.780,350.940 131.200 M285.739 175.900 C 285.308 176.285,284.688 176.992,284.360 177.471 C 284.033 177.950,282.637 179.553,281.259 181.033 L 278.751 183.724 292.076 197.090 C 306.140 211.199,306.613 211.600,309.200 211.600 C 313.370 211.600,316.078 207.812,314.720 203.878 C 314.254 202.530,287.618 175.200,286.770 175.200 C 286.634 175.200,286.170 175.515,285.739 175.900 M117.760 218.958 C 120.948 220.290,122.226 224.564,120.400 227.788 C 118.877 230.475,118.106 231.809,116.856 233.918 C 116.165 235.082,115.600 236.099,115.600 236.177 C 115.600 236.255,114.284 238.542,112.676 241.259 C 111.067 243.977,109.202 247.190,108.530 248.400 C 107.858 249.610,106.361 252.220,105.203 254.200 C 103.038 257.902,102.145 259.444,100.859 261.700 C 100.452 262.415,98.403 265.970,96.305 269.600 C 94.208 273.230,92.133 276.830,91.694 277.600 C 90.851 279.082,83.990 290.964,82.803 293.000 C 82.418 293.660,81.069 296.000,79.806 298.200 C 78.542 300.400,76.562 303.820,75.405 305.800 C 74.247 307.780,72.850 310.210,72.300 311.200 C 71.363 312.886,68.533 317.775,63.618 326.200 C 62.463 328.180,61.115 330.520,60.622 331.400 C 60.130 332.280,58.438 335.214,56.863 337.919 C 55.289 340.625,54.000 342.907,54.000 342.990 C 54.000 343.073,53.100 344.608,52.000 346.400 C 50.900 348.192,50.000 349.790,50.000 349.951 C 50.000 352.658,43.527 354.301,40.694 352.313 C 36.581 349.427,37.057 347.624,46.005 332.200 C 51.278 323.111,52.650 320.729,53.496 319.200 C 54.044 318.210,54.992 316.590,55.602 315.600 C 56.212 314.610,57.832 311.820,59.201 309.400 C 62.026 304.408,62.565 303.476,64.403 300.400 C 65.126 299.190,66.258 297.210,66.920 296.000 C 67.581 294.790,68.455 293.322,68.861 292.738 C 69.267 292.154,69.600 291.566,69.600 291.431 C 69.600 291.296,70.320 290.000,71.200 288.552 C 72.080 287.103,72.800 285.854,72.800 285.775 C 72.800 285.696,73.790 283.981,75.000 281.964 C 76.210 279.948,77.200 278.249,77.200 278.190 C 77.200 278.130,77.920 276.897,78.800 275.448 C 79.680 274.000,80.400 272.734,80.400 272.637 C 80.400 272.539,81.300 270.992,82.400 269.200 C 83.500 267.408,84.400 265.872,84.400 265.788 C 84.400 265.704,84.965 264.682,85.656 263.518 C 87.108 261.070,87.267 260.794,91.393 253.600 C 93.096 250.630,94.829 247.615,95.245 246.900 C 95.660 246.185,96.360 244.970,96.800 244.200 C 98.298 241.579,99.096 240.203,101.207 236.600 C 102.367 234.620,103.515 232.639,103.758 232.198 C 111.207 218.679,113.011 216.973,117.760 218.958 " stroke="none" fill="#fc7433" fill-rule="evenodd"></path><path id="path2" d="M351.400 64.800 C 351.264 65.020,350.885 65.200,350.558 65.200 C 349.777 65.200,348.000 66.993,348.000 67.782 C 348.000 68.122,347.865 68.403,347.700 68.406 C 347.535 68.410,346.960 69.310,346.421 70.406 C 345.883 71.503,345.277 72.400,345.075 72.400 C 344.872 72.400,344.801 72.760,344.916 73.200 C 345.043 73.686,344.928 74.000,344.623 74.000 C 344.347 74.000,343.784 74.765,343.372 75.700 C 342.959 76.635,342.527 77.490,342.411 77.600 C 342.021 77.969,340.753 80.193,340.529 80.900 C 340.407 81.285,340.148 81.600,339.953 81.600 C 339.759 81.600,339.600 81.960,339.600 82.400 C 339.600 82.840,339.451 83.200,339.268 83.200 C 339.086 83.200,338.515 84.100,338.000 85.200 C 337.485 86.300,336.914 87.200,336.732 87.200 C 336.549 87.200,336.400 87.494,336.400 87.853 C 336.400 88.212,336.085 88.797,335.700 89.153 C 335.315 89.509,334.941 90.070,334.870 90.400 C 334.798 90.730,334.573 91.060,334.370 91.133 C 334.166 91.207,334.000 91.612,334.000 92.033 C 334.000 92.455,333.842 92.800,333.649 92.800 C 333.455 92.800,333.057 93.385,332.763 94.100 C 332.470 94.815,331.908 95.749,331.515 96.175 C 331.122 96.602,330.800 97.152,330.800 97.398 C 330.800 97.643,330.340 98.465,329.777 99.222 C 329.214 99.980,328.458 101.230,328.098 102.000 C 327.737 102.770,327.285 103.508,327.094 103.640 C 326.903 103.772,326.709 104.132,326.662 104.440 C 326.616 104.748,326.437 105.225,326.265 105.500 C 326.078 105.800,326.153 106.000,326.454 106.000 C 327.072 106.000,375.909 154.736,376.145 155.588 C 376.269 156.034,376.394 155.956,376.604 155.300 C 376.763 154.805,377.052 154.400,377.247 154.400 C 377.441 154.400,377.600 154.040,377.600 153.600 C 377.600 153.160,377.780 152.800,378.000 152.800 C 378.220 152.800,378.400 152.530,378.400 152.200 C 378.400 151.870,378.580 151.600,378.800 151.600 C 379.020 151.600,379.200 151.330,379.200 151.000 C 379.200 150.670,379.380 150.400,379.600 150.400 C 379.820 150.400,380.000 150.040,380.000 149.600 C 380.000 149.160,380.180 148.800,380.400 148.800 C 380.620 148.800,380.800 148.506,380.800 148.147 C 380.800 147.788,381.188 147.158,381.661 146.747 C 382.170 146.305,382.309 146.000,382.000 146.000 C 381.691 146.000,381.830 145.695,382.339 145.253 C 382.812 144.842,383.200 144.212,383.200 143.853 C 383.200 143.494,383.380 143.200,383.600 143.200 C 383.820 143.200,384.000 142.922,384.000 142.583 C 384.000 142.244,384.331 141.611,384.736 141.177 C 385.141 140.742,385.721 139.895,386.026 139.293 C 386.330 138.692,387.259 137.057,388.090 135.659 C 388.920 134.262,389.600 132.979,389.600 132.808 C 389.600 132.638,389.870 132.274,390.200 132.000 C 390.530 131.726,390.800 131.164,390.800 130.751 C 390.800 130.338,390.980 130.000,391.200 130.000 C 391.420 130.000,391.600 129.640,391.600 129.200 C 391.600 128.760,391.780 128.400,392.000 128.400 C 392.220 128.400,392.400 128.080,392.400 127.688 C 392.400 127.297,392.760 126.717,393.200 126.400 C 393.640 126.083,394.000 125.503,394.000 125.112 C 394.000 124.720,394.146 124.400,394.325 124.400 C 394.504 124.400,394.898 123.770,395.200 123.000 C 395.502 122.230,395.851 121.600,395.975 121.600 C 396.100 121.600,396.647 120.745,397.191 119.700 C 397.735 118.655,398.275 117.710,398.390 117.600 C 399.467 116.573,400.000 114.590,400.000 111.606 L 400.000 108.336 378.549 86.884 C 366.751 75.086,356.651 65.200,356.103 64.916 C 354.927 64.306,351.754 64.228,351.400 64.800 " stroke="none" fill="#c4d4dc" fill-rule="evenodd"></path><path id="path3" d="M284.186 0.381 C 283.738 0.562,283.131 1.001,282.837 1.355 C 282.543 1.710,282.007 2.000,281.647 2.000 C 281.287 2.000,280.768 2.360,280.493 2.800 C 280.218 3.240,279.745 3.600,279.442 3.600 C 279.139 3.600,278.376 3.869,277.746 4.198 C 277.116 4.526,276.780 4.797,277.000 4.800 C 277.220 4.803,276.884 5.074,276.254 5.402 C 275.624 5.731,274.849 6.000,274.531 6.000 C 274.213 6.000,274.064 6.180,274.200 6.400 C 274.336 6.620,274.167 6.800,273.824 6.800 C 273.481 6.800,273.200 6.980,273.200 7.200 C 273.200 7.420,272.840 7.600,272.400 7.600 C 271.960 7.600,271.600 7.758,271.600 7.950 C 271.600 8.143,271.060 8.408,270.400 8.540 C 269.611 8.698,269.198 9.023,269.194 9.490 C 269.189 10.006,269.099 10.061,268.864 9.690 C 268.623 9.310,268.212 9.493,267.257 10.405 C 266.552 11.080,265.773 11.507,265.527 11.355 C 265.280 11.202,264.836 11.410,264.539 11.815 C 264.243 12.221,264.000 12.401,264.000 12.214 C 264.000 12.028,263.640 12.202,263.200 12.600 C 262.760 12.998,262.400 13.172,262.400 12.986 C 262.400 12.799,262.136 12.996,261.813 13.424 C 261.490 13.851,261.220 14.058,261.213 13.884 C 261.206 13.711,260.975 13.759,260.700 13.992 C 259.543 14.971,256.562 16.786,256.100 16.793 C 255.825 16.797,255.600 16.980,255.600 17.200 C 255.600 17.420,255.139 17.600,254.576 17.600 C 253.996 17.600,253.660 17.773,253.800 18.000 C 253.936 18.220,253.767 18.400,253.424 18.400 C 253.081 18.400,252.800 18.580,252.800 18.800 C 252.800 19.020,252.455 19.200,252.033 19.200 C 251.612 19.200,251.207 19.335,251.133 19.500 C 251.060 19.665,250.389 20.229,249.643 20.754 C 248.896 21.279,248.431 21.459,248.607 21.154 C 248.784 20.849,248.483 21.005,247.939 21.500 C 247.394 21.995,246.634 22.400,246.251 22.400 C 245.867 22.400,245.664 22.580,245.800 22.800 C 245.936 23.020,245.687 23.200,245.247 23.200 C 244.807 23.200,244.336 23.380,244.200 23.600 C 244.064 23.820,244.102 24.000,244.284 24.000 C 244.466 24.000,255.846 35.237,269.573 48.970 L 294.532 73.940 295.866 72.923 C 296.600 72.363,297.200 72.052,297.200 72.233 C 297.200 72.413,297.416 72.344,297.680 72.080 C 297.944 71.816,298.495 71.600,298.904 71.600 C 299.313 71.600,299.536 71.420,299.400 71.200 C 299.181 70.846,299.723 70.635,300.168 70.900 C 300.260 70.955,300.755 70.608,301.268 70.130 C 301.780 69.651,302.470 69.201,302.800 69.130 C 303.130 69.058,303.701 68.673,304.070 68.274 C 304.438 67.874,304.838 67.546,304.958 67.543 C 305.519 67.533,307.600 66.594,307.600 66.352 C 307.600 65.984,310.317 64.400,310.947 64.400 C 311.223 64.400,311.798 64.085,312.225 63.699 C 312.651 63.314,313.855 62.566,314.900 62.037 C 315.945 61.507,316.800 60.923,316.800 60.737 C 316.800 60.552,317.160 60.400,317.600 60.400 C 318.040 60.400,318.400 60.220,318.400 60.000 C 318.400 59.780,318.670 59.600,319.000 59.600 C 319.330 59.600,319.600 59.420,319.600 59.200 C 319.600 58.980,319.936 58.800,320.346 58.800 C 320.756 58.800,321.566 58.427,322.146 57.971 C 322.726 57.515,323.200 57.257,323.200 57.398 C 323.200 57.539,323.781 57.237,324.492 56.727 C 327.315 54.700,330.231 53.172,330.615 53.517 C 330.787 53.673,330.822 53.613,330.693 53.385 C 330.564 53.157,330.940 52.754,331.529 52.491 C 334.131 51.327,335.600 49.220,335.600 46.651 C 335.600 44.080,335.157 43.474,328.479 36.891 C 325.136 33.595,322.400 30.736,322.400 30.538 C 322.400 30.339,322.027 29.912,321.570 29.588 C 319.924 28.421,318.400 26.919,318.400 26.464 C 318.400 26.209,318.239 26.000,318.042 26.000 C 317.844 26.000,314.946 23.300,311.600 20.000 C 308.254 16.700,305.632 14.000,305.773 14.000 C 305.913 14.000,305.617 13.574,305.114 13.053 C 304.611 12.532,304.075 12.176,303.921 12.263 C 303.768 12.350,303.183 11.744,302.621 10.917 C 302.060 10.091,301.600 9.536,301.600 9.685 C 301.600 9.834,299.344 7.716,296.586 4.978 L 291.571 0.000 288.286 0.025 C 286.479 0.039,284.634 0.199,284.186 0.381 " stroke="none" fill="#dce4ec" fill-rule="evenodd"></path><path id="path4" d="M244.400 24.301 C 244.400 24.467,255.579 35.762,269.243 49.401 C 282.907 63.041,294.022 73.977,293.943 73.704 C 293.683 72.803,244.400 23.660,244.400 24.301 M326.400 106.107 C 326.400 106.434,375.803 155.531,375.967 155.367 C 376.192 155.142,327.160 106.017,326.700 106.007 C 326.535 106.003,326.400 106.048,326.400 106.107 " stroke="none" fill="#ecac8c" fill-rule="evenodd"></path></g></svg>